<svg width="400" height="134" viewBox="0 0 400 134" fill="none" xmlns="http://www.w3.org/2000/svg">
<path d="M300.159 91.0067C289.839 98.4104 278.848 90.4825 269.02 97.7716C264.974 100.786 264.499 103.898 262.042 107.845C249.331 128.222 205.973 134.84 175.572 122.03C166.956 118.394 162.321 110.794 153.23 111.596C145.368 112.284 142.648 117.673 131.051 118.46C124.074 118.935 118.799 117.411 117.227 116.92C115.032 116.232 113.492 115.528 112.28 114.823C107.071 111.793 106.907 110.876 105.04 110.581C100.404 109.844 98.9957 117.428 90.0195 121.342C88.3324 122.08 82.927 124.356 77.9474 122.145C77.2595 121.834 73.8852 120.36 73.4757 117.706C73.0662 115.118 75.7034 112.939 75.2611 112.481C74.7697 111.973 71.2317 114.725 69.5609 115.921C62.2718 121.097 50.1342 124.995 44.5322 120.573C42.5338 119 40.8959 116.003 41.0433 113.152C41.2071 109.991 43.4839 108.419 42.8615 107.501C41.9114 106.109 36.3422 109.32 29.004 110.925C24.2702 111.957 18.1277 113.3 12.7059 111.138C4.85986 108.009 -0.136041 98.132 0.142419 89.0574C0.551919 75.4784 12.7386 68.2549 14.5077 67.2065C21.3873 63.1279 28.3652 63.0133 30.0687 63.0133C32.2964 63.0133 35.8672 62.9641 40.0605 64.5038C43.5494 65.7815 46.0392 67.616 46.5634 67.01C47.0711 66.4203 44.8434 64.6513 43.9753 61.0804C43.7296 60.0321 42.9434 56.8707 44.4339 54.2991C46.8909 50.0894 53.3119 50.2204 54.0982 50.2368C59.4872 50.3842 62.7304 53.7422 63.8442 52.5792C64.696 51.6947 62.7468 49.811 62.8123 46.1091C62.8123 45.5194 62.9433 41.621 65.6788 38.8528C68.4143 36.0845 72.6076 35.4457 75.7853 36.1337C80.0768 37.0673 81.4528 40.1959 83.2546 39.4588C85.1546 38.6889 84.1391 35.0034 85.6952 29.8765C86.1538 28.3368 88.2832 21.0313 94.2947 18.2467C101.207 15.0526 108.218 18.7709 109.233 19.3278C116.211 23.1771 117.997 30.499 121.191 29.7946C123.123 29.3687 122.78 26.7152 125.712 25.0772C128.709 23.39 132.771 24.1107 135.458 25.5686C141.174 28.6808 140.896 35.3802 143.369 35.5112C146.465 35.6586 146.793 25.11 153.394 16.3958C162.73 4.06165 179.012 2.83312 180.257 2.75122C181.305 2.6857 197.8 1.93223 209.053 13.562C214.835 19.5407 217.538 27.0428 218.193 28.992C221.403 38.4924 219.716 44.2745 222.91 45.6996C226.53 47.3212 229.741 40.3106 240.175 37.1492C242.927 36.3138 249.757 34.2336 257.063 37.0673C265.875 40.4744 269.626 48.7954 269.937 49.4998C272.771 56.0354 270.396 59.5898 273.263 61.6046C277.095 64.3073 282.026 58.3286 291.494 59.9502C293.164 60.245 297.079 60.9658 300.781 63.9469C301.436 64.4711 308.447 70.3024 307.742 78.6234C307.136 85.8306 301.141 90.2696 300.159 90.9739V91.0067Z" fill="#F2F7F8"/>
<path d="M210.052 128.779C197.849 128.779 185.793 126.535 175.523 122.194C172.313 120.835 169.675 118.951 167.12 117.133C162.894 114.119 158.914 111.285 153.263 111.776C149.79 112.088 147.284 113.333 144.63 114.659C141.305 116.314 137.538 118.197 131.084 118.64C124.712 119.066 119.651 117.853 117.194 117.084C115.245 116.478 113.623 115.79 112.214 114.971C109.921 113.644 108.578 112.694 107.694 112.071C106.531 111.252 106.039 110.908 105.024 110.745C102.812 110.401 101.354 112.022 99.3397 114.266C97.2595 116.592 94.655 119.491 90.1014 121.49C85.4167 123.537 81.3054 123.816 77.8983 122.292C75.2284 121.113 73.6068 119.491 73.3283 117.722C73.0662 116.035 74.0326 114.528 74.6715 113.546C74.9008 113.185 75.212 112.694 75.1628 112.595C74.8516 112.268 71.6903 114.594 70.6583 115.347C70.298 115.609 69.9704 115.855 69.6919 116.052C61.8295 121.654 49.9377 125.011 44.4667 120.687C42.6322 119.246 40.7485 116.265 40.9123 113.136C41.0105 111.383 41.7313 110.106 42.2718 109.172C42.6813 108.451 42.9925 107.927 42.7632 107.583C42.2882 106.895 40.0769 107.649 37.2923 108.632C35.0319 109.418 32.2145 110.401 29.0859 111.089C24.221 112.153 18.1605 113.48 12.6896 111.301C5.17114 108.304 -0.283437 98.7544 0.0114028 89.0574C0.404523 76.0025 11.674 68.7135 14.4586 67.0755C29.1514 58.3613 45.2202 66.2728 46.4651 66.9117C43.3857 63.1934 42.5012 58.2303 44.3193 54.2172C46.7927 48.7626 53.8197 46.0271 58.3406 48.0583C59.782 48.7135 60.7484 49.7454 61.3873 50.5971C61.0105 48.7462 59.9131 42.0796 63.9262 36.3957C64.8271 35.1017 66.5634 32.7266 69.7575 31.58C70.0032 31.4981 75.687 29.5489 80.1587 33.1033C81.9114 34.4956 82.7959 36.1992 83.2054 37.1656C81.764 27.8617 86.6944 18.8527 94.8844 15.3474C103.386 11.6947 113.508 14.8069 118.226 21.4408C120.339 24.4055 120.978 27.5505 121.191 29.6635C121.453 28.5824 122.239 26.0435 124.565 23.9796C127.448 21.4244 131.576 20.5563 135.228 21.7029C139.635 23.0788 141.567 26.8134 142.075 27.7962C143.762 31.0558 143.566 34.1353 143.418 35.3802C143.615 32.5628 144.254 28.3204 146.399 23.734C152.411 10.8593 166.678 3.14432 180.29 2.62016C182.255 2.53826 198.226 2.12877 209.217 13.4801C214.688 19.1476 217.456 26.2074 218.39 28.9756C219.831 33.2344 220.273 36.6905 220.634 39.4588C221.076 42.8003 221.338 44.8314 223.009 45.5849C224.679 46.3384 226.301 45.1099 228.758 43.2425C231.313 41.3097 234.802 38.6398 240.159 37.0182C243.041 36.15 249.806 34.0861 257.145 36.9362C265.941 40.3433 269.708 48.5333 270.118 49.467C271.51 52.6611 271.657 55.118 271.772 57.1C271.903 59.1639 271.985 60.5234 273.394 61.5062C275.146 62.7511 277.128 62.0959 279.847 61.195C282.845 60.2122 286.563 58.9674 291.559 59.8355C293.082 60.0976 297.128 60.7855 300.928 63.865C301.715 64.5038 308.66 70.3515 307.955 78.6889C307.382 85.5849 301.96 89.9911 300.306 91.1704C295.081 94.9215 289.659 94.7576 284.401 94.6266C279.061 94.4792 274.032 94.3482 269.184 97.9354C266.383 100.016 265.318 102.129 264.09 104.569C263.549 105.65 262.992 106.764 262.239 107.96C256.195 117.657 242.812 124.815 225.531 127.583C220.437 128.402 215.261 128.795 210.101 128.795L210.052 128.779ZM154.54 111.4C156.031 111.4 158.717 110.745 167.3 116.871C169.839 118.689 172.46 120.556 175.638 121.899C190.183 128.025 208.332 129.975 225.417 127.239C242.599 124.487 255.9 117.395 261.895 107.78C262.632 106.584 263.189 105.487 263.729 104.422C264.974 101.932 266.055 99.7863 268.922 97.6569C273.869 93.9878 279.192 94.1352 284.352 94.2826C289.561 94.4301 294.933 94.5775 300.06 90.892C301.682 89.729 307.005 85.421 307.579 78.6561C308.267 70.4825 301.453 64.7495 300.683 64.127C296.948 61.1131 292.968 60.4252 291.461 60.1795C286.547 59.3277 282.878 60.5562 279.913 61.5226C277.194 62.4235 275.048 63.1279 273.164 61.8011C271.625 60.72 271.543 59.213 271.412 57.1492C271.297 55.1999 271.15 52.7757 269.79 49.6307C269.397 48.7135 265.679 40.6381 257.014 37.2803C249.774 34.4793 243.091 36.5104 240.24 37.3785C234.95 38.9838 231.477 41.6209 228.938 43.5538C226.481 45.4211 224.712 46.7643 222.861 45.9289C221.01 45.0935 220.716 42.8986 220.29 39.557C219.929 36.8052 219.487 33.3654 218.062 29.123C215.507 21.5554 210.887 15.6422 208.955 13.7585C197.767 2.86584 181.436 4.92972 179.88 5.15904C178.553 5.3556 163.14 7.76348 156.162 19.0002C154.802 21.1787 152.132 26.322 149.79 31.7438C147.186 37.788 145.924 41.9485 144.303 41.8502C142.698 41.752 142.992 37.6079 139.028 33.4965C138.078 32.4973 136.047 30.3842 133.099 29.7618C127.399 28.5497 122.436 33.7913 121.895 34.381C120.601 32.7102 118.472 30.3188 115.31 28.2221C112.788 26.5677 104.254 20.933 96.1948 24.4875C90.3471 27.0755 88.0703 33.0542 87.4151 34.8069C85.4823 39.9174 86.1211 44.4546 86.5306 46.453C86.1866 45.8961 83.2054 41.2278 77.6199 40.7855C76.3094 40.6873 73.3447 40.6873 70.773 42.5546C67.4643 44.9625 66.7271 48.992 66.1047 52.3826C65.7771 54.168 65.7116 55.6914 65.6952 56.7724C64.6469 56.15 62.9925 55.3474 60.8303 55.0198C59.3234 54.7905 54.7206 54.0861 51.8213 57.0017C48.8566 59.9829 49.7083 64.8314 49.8394 65.5685C50.7239 70.5808 54.6059 73.1524 54.0163 73.9223C53.3611 74.7577 48.8238 71.4162 43.9098 69.5325C36.1949 66.5677 26.1211 66.6004 17.7673 70.8429C14.9827 72.2679 4.71246 77.4931 2.82876 88.6315C1.33818 97.444 5.44959 107.829 12.7878 111.072C19.4217 113.988 28.5454 110.941 28.9876 110.843C32.0998 110.155 34.9008 109.188 37.1612 108.402C40.4208 107.272 42.4028 106.584 43.0089 107.485C43.3529 107.993 43.0089 108.582 42.5339 109.418C42.0098 110.319 41.3054 111.564 41.2235 113.234C41.0597 116.248 42.8942 119.131 44.6469 120.523C50.0032 124.749 61.7149 121.408 69.479 115.871C69.7574 115.675 70.085 115.429 70.4454 115.167C73.4429 112.972 74.9499 112.006 75.3922 112.448C75.6379 112.71 75.3922 113.12 74.9336 113.808C74.3275 114.758 73.3938 116.199 73.6395 117.755C73.9016 119.41 75.4577 120.949 78.0129 122.063C81.3381 123.537 85.3676 123.259 89.954 121.244C94.4421 119.278 97.0138 116.412 99.0777 114.102C101.092 111.858 102.665 110.089 105.056 110.466C106.154 110.646 106.694 111.023 107.874 111.842C108.807 112.497 110.101 113.398 112.362 114.725C113.754 115.528 115.359 116.215 117.276 116.822C119.7 117.575 124.729 118.787 131.035 118.361C133.689 118.181 135.884 117.755 137.784 117.198C140.634 116.363 141.764 115.56 144.467 114.414C148.627 112.628 151.395 111.449 154.54 111.432V111.4Z" fill="white"/>
<path d="M84.1386 93.349C74.7201 96.3793 68.4138 86.5841 50.5596 82.571C36.1452 79.3441 26.4154 82.6365 24.3188 83.4064C20.1091 84.9297 9.95355 88.5988 8.39745 96.9526C7.69311 100.736 8.82332 105.094 11.4769 108.009C17.472 114.561 30.0027 111.646 31.5096 111.285C36.096 110.155 39.3229 108.091 40.3712 109.32C41.4523 110.581 38.4711 113.382 38.6677 117.444C38.8806 121.834 42.6808 124.962 44.499 126.453C53.2786 133.677 71.8208 133.513 81.8126 133.218C109.184 132.415 123.532 131.826 140.944 123.406C146.432 120.753 150.723 118.05 153.573 116.101C160.06 119.901 167.791 123.57 176.767 126.322C184.089 128.566 212.345 137.231 240.912 125.912C252.918 121.146 250.608 118.558 262.287 114.709C277.767 109.614 288.184 112.071 300.191 103.226C303.467 100.818 306.006 98.1811 307.627 94.5775C307.84 94.1025 311.984 84.4055 306.71 76.5595C302.304 70.0075 294.196 68.992 292.984 68.861C278.422 67.2557 272.197 82.5382 255.916 83.4391C248.643 83.8323 242.517 81.1951 238.422 78.8527C235.293 82.2925 210.789 108.304 176.948 104.209C164.761 102.735 155.342 97.8372 149.282 93.8405C146.088 95.6095 141.436 97.8535 135.539 99.6717C129.937 101.392 123.5 103.374 117.21 102.587C103.893 100.933 95.8503 87.5014 93.9993 84.2254C92.3613 87.2065 89.2819 91.711 84.1549 93.3654L84.1386 93.349Z" fill="#CEEAF0"/>
<path d="M391.952 88.2876C374.606 102.948 340.797 98.5251 316.899 88.091C309.593 84.8969 304.057 81.5226 300.863 79.4424C303.647 79.6553 305.58 79.3277 306.203 78.1975C307.775 75.2818 300.666 66.7315 292.05 63.521C283.942 60.5071 276.358 62.8822 273.344 64.0288C272.689 61.1787 270.74 54.5939 264.843 48.9264C263.549 47.6979 255.474 40.1959 244.221 40.6381C238.439 40.8675 234.114 43.1115 227.726 46.4367C223.304 48.7299 219.913 51.1214 217.652 52.8413C214.131 50.4989 208.218 47.1902 200.257 45.5194C196.44 44.7168 183.942 42.2598 170.576 48.3859C167.612 49.7454 158.373 54.4137 151.674 64.3073C145.417 73.5456 145.793 80.933 141.469 81.6537C137.046 82.3908 135.621 74.8068 126.809 71.4653C117.898 68.1074 109.004 71.9403 107.35 72.6447C96.6206 77.2638 93.0989 86.9935 91.9523 86.3383C90.4945 85.4866 93.6067 67.9272 107.464 60.7692C108.66 60.1467 119.7 54.6758 130.494 59.7372C133.459 61.1295 135.605 62.915 136.981 64.3073C136.391 63.1115 135.556 60.9821 135.769 58.3613C136.195 53.1525 140.585 48.5006 145.892 47.5178C150.855 46.6005 154.753 49.2377 155.638 49.8601C155.015 48.5333 154.147 46.1582 154.606 43.39C155.539 37.6406 161.6 33.0542 167.562 33.4146C171.264 33.6439 173.885 35.7078 175.032 36.7397C175.032 34.6267 175.326 30.9248 177.472 27.1574C181.535 20.0321 190.412 15.8552 198.865 17.3458C207.546 18.8855 212.116 25.7487 212.968 27.0755C213.443 26.0763 214.753 23.7012 217.489 22.3581C221.682 20.2778 225.924 22.2434 227.235 22.8495C233.132 25.5686 234.884 31.7438 235.146 32.7921C236.113 28.7626 238.553 20.9494 245.171 13.6767C247.939 10.6464 257.03 0.949385 272.034 0.0321049C273.082 -0.0334151 289.577 -0.786885 300.83 10.8429C305.466 15.6423 307.742 20.9985 309.97 26.2729C312.755 32.8577 314.049 38.738 314.688 42.9805C316.424 40.5398 320.224 35.9207 326.694 32.9723C327.595 32.5628 341.846 26.3384 352.509 33.8077C357.488 37.2966 359.765 42.4235 361.698 46.7642C363.844 51.5963 364.663 55.9371 365.023 58.8691C367.988 57.6734 373.639 55.8879 380.65 56.7888C383.811 57.1983 388.348 57.7716 392.558 61.2114C392.984 61.5554 400.207 67.6487 399.52 75.8879C398.995 82.1614 394.229 86.3056 391.936 88.2384L391.952 88.2876Z" fill="white"/>
<path d="M282.303 79.2294C290.362 76.5267 298.503 78.7872 300.862 79.426C310.657 82.1451 316.832 88.6807 319.076 86.7151C319.994 85.9125 319.289 84.5366 319.437 81.6046C319.437 81.6046 319.764 75.0853 324.465 69.5161C329.592 63.4555 339.24 61.3589 347.135 63.8486C356.03 66.6496 359.977 74.4137 361.222 76.838C368.839 91.7601 359.715 107.125 359.142 108.058C358.11 109.713 354.26 115.626 346.398 120.032C342.876 121.998 337.373 124.324 298.257 122.899C286.857 122.489 281.157 122.276 276.914 121.85C269.805 121.162 267.184 120.54 261.828 120.802C253.327 121.228 252.377 123.177 245.956 123.406C243.63 123.488 228.053 124.045 224.105 115.085C221.517 109.205 224.809 101.244 229.854 97.1819C233.589 94.1844 237.75 93.7257 241.075 93.3981C251.394 92.3989 253.507 97.2638 260.272 96.3629C270.247 95.0197 269.936 83.39 282.32 79.2458L282.303 79.2294Z" fill="#CEEAF0"/>
<path d="M244.106 123.554C238.029 123.554 227.235 122.473 223.992 115.135C221.305 109.041 224.909 101.031 229.774 97.1001C233.607 94.0207 237.914 93.5948 241.043 93.2836C246.661 92.7431 249.872 93.9388 252.689 94.9871C255.081 95.888 257.161 96.6579 260.224 96.2484C265.138 95.5932 267.497 92.4646 270.216 88.861C272.919 85.2901 275.982 81.2279 282.239 79.1313C287.611 77.3295 293.869 77.395 300.846 79.3278C305.597 80.6382 309.43 82.8168 312.509 84.5694C315.621 86.3385 317.865 87.5997 318.963 86.6333C319.487 86.1746 319.438 85.4703 319.356 84.3237C319.307 83.603 319.241 82.7021 319.29 81.5883C319.29 81.5227 319.667 74.9543 324.352 69.4343C329.331 63.5375 338.914 61.1297 347.136 63.7341C356.063 66.5514 359.995 74.25 361.289 76.7725C369.004 91.9077 359.601 107.452 359.208 108.107C357.505 110.876 353.574 116.117 346.416 120.114C342.321 122.407 335.539 124.356 298.226 122.997C286.842 122.587 281.125 122.374 276.882 121.949C274.999 121.768 273.426 121.588 272.05 121.424C268.25 120.999 265.744 120.704 261.813 120.9C257.341 121.13 254.901 121.785 252.771 122.358C250.822 122.882 248.987 123.39 245.941 123.488C245.4 123.505 244.778 123.521 244.09 123.521L244.106 123.554ZM243.762 93.3655C242.927 93.3655 242.042 93.4146 241.076 93.4965C237.964 93.8077 233.688 94.2173 229.905 97.2639C225.089 101.146 221.534 109.041 224.172 115.053C227.726 123.095 240.568 123.505 245.924 123.325C248.938 123.21 250.773 122.718 252.706 122.194C254.851 121.605 257.292 120.949 261.797 120.72C265.744 120.524 268.267 120.802 272.067 121.244C273.459 121.408 275.015 121.588 276.899 121.768C281.141 122.178 286.842 122.391 298.209 122.817C332.951 124.094 341.24 122.342 344.843 120.72C345.4 120.474 345.777 120.261 346.317 119.967C357.046 113.906 364.057 98.476 359.569 85.4867C359.307 84.7332 354.344 70.9904 343.123 69.7128C337.996 69.1231 332.443 71.2361 328.84 74.8397C322.648 80.9986 324.548 89.1558 319.946 90.7447C317.456 91.5964 315.736 89.6308 310.773 87.1083C308.529 85.9617 291.788 77.6735 280.306 83.3409C278.16 84.4056 274.671 86.6988 271.543 89.9421C268.25 93.3655 266.956 96.1501 263.32 97.0837C260.978 97.6898 258.619 97.2967 258.193 97.2148C256.653 96.9363 256.539 96.6087 252.624 95.2164C249.315 94.0371 248.086 93.8077 247.53 93.7095C246.416 93.5129 245.171 93.3982 243.762 93.3982V93.3655Z" fill="white"/>
</svg>
