<svg width="115" height="55" viewBox="0 0 115 55" fill="none" xmlns="http://www.w3.org/2000/svg">
<g id="Group">
<path id="Vector" d="M98.7796 25.4298C98.3373 24.103 97.158 21.302 94.3406 19.1235C93.9803 18.845 89.6232 15.5854 84.9549 16.4699C81.3677 17.1415 80.0736 17.5182 80.0736 17.5182C78.6158 17.9605 77.5839 18.3372 77.0761 17.8622C76.5847 17.3872 76.9614 16.388 77.0761 15.5854C77.4692 12.8172 74.8484 10.2619 73.3742 8.83685C69.0499 4.64357 62.4652 4.77457 59.6805 4.85647C50.6388 5.10217 44.9058 10.1636 44.2833 10.7369C41.6462 13.1448 42.3669 14.2095 39.828 15.3888C35.8968 17.1906 32.6044 15.3888 27.674 17.4855C26.5766 17.9605 24.2506 19.1399 23.5299 20.8106C22.9893 22.0555 23.4316 23.0711 23.7756 23.8901C24.1032 24.6436 24.3489 25.2496 23.8083 25.7738C23.1368 26.4126 21.8428 26.3798 20.0573 26.3471C19.0254 26.3307 17.8624 26.2979 16.5356 26.3962C11.2449 26.7893 8.6896 32.4732 3.33334 32.1783C2.36692 32.1292 1.61345 31.8835 1.22033 31.7361C-0.663371 36.6828 -0.00817056 39.6804 0.810829 41.4494C6.93695 54.5534 46.4455 50.0161 63.4643 48.0669C70.0982 47.2971 73.6035 46.5436 80.778 46.4126C90.6551 46.2324 94.8484 46.0522 103.235 45.6918C108.067 45.4789 110.016 45.3478 111.638 43.7754C115.373 40.139 114.734 31.3593 110.147 27.248C107.608 24.9711 104.382 24.5944 104.169 24.5616C101.695 24.2995 99.746 25.0039 98.8287 25.397L98.7796 25.4298Z" fill="#F2F7F8"/>
<path id="Vector_2" d="M89.5252 30.819C91.9494 30.6552 96.6669 30.3112 98.4687 26.855C100.238 23.4316 98.0264 19.1728 96.0608 17.0106C92.0641 12.6044 85.9216 13.4889 84.9879 13.62C80.8438 14.2752 78.223 16.7322 77.2894 17.6822C77.3221 16.0442 77.1583 13.3087 75.8151 10.3603C73.2107 4.62735 68.0838 2.28498 66.4949 1.58064C59.255 -1.59708 52.5064 0.859934 50.5408 1.69531C48.5916 2.51431 44.8406 4.15235 42.3017 8.23097C40.5818 10.9828 40.1395 13.6855 40.0085 15.2252C38.911 14.6355 35.6678 13.1122 31.6874 13.9148C27.1829 14.8321 23.5138 18.3865 22.0232 23.104C19.7464 22.5962 15.2747 21.9738 10.3443 23.792C8.78817 24.3653 5.39752 25.6592 2.85862 28.968C1.17149 31.1629 -0.269963 34.4389 0.598177 35.2252C1.3189 35.864 3.00604 34.2424 6.6424 32.6863C8.88646 31.7199 15.2419 29.0008 21.1715 30.9828C24.0052 31.9164 23.7595 32.932 26.4786 33.5708C31.3598 34.701 35.6514 32.2768 36.7161 31.6707C42.0396 28.6732 43.956 23.5626 44.4638 22.072C45.5777 22.8419 47.1993 23.8247 49.2795 24.6928C56.1591 27.543 62.3344 26.6421 64.2672 26.2981C69.0338 25.43 72.5719 23.4316 74.6522 22.0229C75.2419 23.3333 76.5031 25.7084 79.042 27.6904C83.137 30.9172 87.6906 30.9173 89.5252 30.8026V30.819Z" fill="white"/>
<path id="Vector_3" d="M41.2377 38.7469C42.7774 39.8444 44.5792 40.8763 46.6758 41.7117C56.9625 45.7739 66.9543 41.8591 70.3449 40.3521C72.8511 41.4987 76.5693 42.6781 80.7298 41.8427C82.8592 41.4169 83.1541 40.8599 85.4473 40.4504C89.8535 39.6478 96.4219 41.4824 96.4219 41.4824C105.234 44.1032 111.917 41.2531 112.261 42.7109C112.589 44.1359 106.381 47.4774 100.107 48.7878C91.9338 50.4914 84.6119 49.2792 79.4358 47.7559C73.752 51.2285 68.6742 52.8665 65.218 53.7018C57.7651 55.5036 54.9314 54.2752 53.5554 53.3743C52.5235 52.7027 52.6709 52.457 51.6553 51.8837C48.5268 50.131 45.1361 51.3431 40.4678 52.3915C40.4678 52.3915 35.8159 53.4234 31.0821 53.8984C26.8233 54.3243 19.9437 55.0122 13.0149 51.7526C11.033 50.819 8.05178 49.099 5.02148 45.8558C6.46292 44.1359 8.95269 41.728 12.5563 40.8435C19.4687 39.14 24.1861 45.561 31.7209 43.5135C36.209 42.285 39.4195 40.1228 41.2541 38.6978L41.2377 38.7469Z" fill="#CEEAF0"/>
</g>
</svg>
