<svg width="366" height="172" viewBox="0 0 366 172" fill="none" xmlns="http://www.w3.org/2000/svg">
<path d="M355.051 140.338C348.106 149.445 334.314 152.721 321.341 147.66C319.834 150.444 317.426 154.408 313.79 158.569C292.807 182.483 254.101 186.267 225.403 177.619C218.163 175.44 207.5 171.247 195.968 162.631C191.841 164.76 186.451 167.037 179.932 168.626C169.859 171.083 161.144 170.903 155.166 170.28C141.406 175.62 129.138 178.339 119.375 179.781C108.843 181.337 62.0618 187.152 24.0274 161.419C11.12 152.688 7.51639 145.94 6.27151 140.239C3.65071 128.266 10.0225 114.457 16.0831 110.526C18.1634 109.167 22.8972 106.251 27.9914 100.682C28.794 99.7972 29.5475 98.7489 30.3665 97.2911C37.8194 83.8431 23.5852 73.2124 27.1396 56.5704C31.3165 36.9635 58.7858 17.0946 79.4901 20.8292C89.8914 22.7129 93.02 29.5598 102.75 28.1838C115.084 26.4312 116.116 14.5393 127.483 12.6392C140.948 10.3952 157.852 24.0069 160.309 37.4385C161.603 44.5311 159.015 52.4098 160.047 52.6392C160.833 52.803 161.325 48.233 164.83 44.9406C169.4 40.6327 177.705 39.83 184.257 42.762C190.612 45.6121 195.772 52.2133 195.559 58.7325C195.329 66.3492 187.827 71.6236 188.483 72.2788C189.154 72.9503 195.673 65.8906 204.781 61.2387C217.737 54.6211 231.709 58.5523 233.691 59.142C249.564 63.8431 258.917 78.0118 259.965 79.6334C263.356 84.9078 263.7 87.8562 267.189 89.1829C273.053 91.427 277.18 85.0388 290.137 82.0413C295.575 80.78 301.734 79.355 308.417 81.943C317.95 85.6285 322.029 94.6375 322.356 95.4074C325.419 102.484 322.848 106.333 325.96 108.528C330.104 111.443 335.444 104.973 345.698 106.742C347.713 107.086 352.381 107.774 355.755 111.067C362.438 117.57 361.619 131.771 355.084 140.338H355.051Z" fill="#E9F4F6"/>
<path d="M305.092 119.486C298.507 115.964 287.123 109.887 273.528 107.889C250.776 104.564 244.797 116.079 226.157 111.804C210.17 108.151 209.187 98.4706 194.019 92.4919C182.815 88.0857 165.141 86.1856 137.59 99.1094C134.216 95.6205 127.762 89.9694 118.131 87.1029C101.571 82.1889 80.3585 86.9391 71.8409 99.8465C63.0285 113.196 73.2496 127.037 62.6517 137.062C56.0015 143.335 46.0588 143.516 44.1587 143.548C30.2521 143.794 22.3733 134.146 18.524 137.062C15.2972 139.519 16.9352 149.347 21.1776 156.8C36.8696 184.449 90.7598 184.04 119.376 179.748C135.117 177.389 147.533 173.213 155.166 170.248C161.145 170.87 169.859 171.034 179.933 168.593C186.452 167.005 191.841 164.728 195.969 162.598C207.5 171.214 218.163 175.407 225.403 177.586C254.101 186.218 292.807 182.434 313.79 158.536C317.443 154.376 319.85 150.412 321.341 147.627C325.485 149.199 331.824 150.788 339.146 149.527C342.619 148.921 353.266 147.103 355.051 140.305C356.001 136.718 354.412 131.984 351.382 130.575C347.959 128.987 344.732 132.639 340.031 134.146C329.875 137.373 321.013 127.971 305.092 119.453V119.486Z" fill="#CEEAF0"/>
<path d="M361.176 112.426C360.275 111.181 356.557 106.366 349.776 104.269C343.715 102.385 338.588 103.728 334.985 104.662C331.021 105.694 327.99 107.234 326.008 108.397C326.467 104.99 327.335 95.0634 321.078 86.8242C310.3 72.6719 288.891 77.2911 286.795 77.7825C276.787 80.1085 270.202 85.9561 267.204 89.0356C266.418 86.0053 261.144 67.0536 242.487 57.848C237.999 55.6367 226.009 50.6736 211.791 54.3099C205.468 55.9316 200.751 58.749 197.851 60.7965C198.081 50.8374 192.151 42.0741 183.552 39.1748C173.478 35.7678 164.764 42.0905 163.961 42.6802C164.027 41.6319 164.928 18.88 146.303 6.44763C130.562 -4.03557 113.56 1.28791 111.938 1.82845C99.9481 5.82517 93.5107 14.4738 91.4632 17.5041C89.0718 16.5705 63.5681 7.05365 40.4232 22.4836C22.3396 34.5393 13.8384 56.4066 16.8032 75.4402C18.13 84.0233 21.5698 90.5589 24.0759 94.5229C21.0784 95.8824 16.6066 98.3066 12.2332 102.533C10.0219 104.662 4.89495 109.707 2.15949 117.963C1.06203 121.288 -2.41053 131.656 2.76555 142.254C7.85973 152.705 18.5722 157.619 19.1783 156.931C19.4568 156.619 17.7369 155.113 15.8204 152.23C14.7721 150.641 9.92361 142.959 10.4314 132.901C11.0538 120.649 19.2274 112.819 21.4879 110.805C28.1382 104.875 35.3945 103.221 38.605 102.696C37.6713 97.9954 35.4109 83.5319 43.1914 68.2493C44.1906 66.2674 54.1824 47.3812 75.8859 41.5172C85.3044 38.9783 93.5107 39.7973 97.7204 40.5016C111.316 42.7948 116.115 50.1331 132.413 54.3263C139.031 56.0299 144.616 56.4885 148.122 56.6195C150.186 60.4033 153.609 65.7432 159.014 71.0994C162.503 74.5556 165.009 77.0781 168.842 78.4704C178.736 82.0577 187.614 76.7997 188.891 76.0134C192.741 73.4254 203.863 66.6769 219.375 67.201C226.385 67.4304 239.326 69.3304 250.677 79.2894C260.505 87.9217 264.141 98.2084 265.402 102.615C267.204 100.731 277.966 89.8218 293.691 90.7391C296.852 90.9193 305.239 91.5417 312.462 98.0937C321.864 106.644 321.913 118.585 321.881 120.616C323.42 118.683 327.221 114.49 333.445 112.819C341.045 110.772 351.561 112.787 356.623 120.911C360.21 126.66 359.604 135.751 354.936 140.19C354.542 140.567 354.117 140.895 353.658 141.206C354.149 141.026 354.641 140.764 355.148 140.469C357.311 139.224 363.535 135.604 365.271 128.364C367.139 120.567 362.438 114.13 361.176 112.41V112.426Z" fill="white"/>
</svg>
