<svg width="261" height="106" viewBox="0 0 261 106" fill="none" xmlns="http://www.w3.org/2000/svg">
<path d="M248.953 73.7834C239.502 81.9406 226.251 79.9914 222.991 79.4345C217.848 87.3297 212.295 91.8997 208.577 94.4549C186.169 109.836 157.143 102.661 145.055 99.6802C138.372 98.0258 133.048 96.0602 129.625 94.6679C127.021 96.2895 118.568 101.072 107.397 99.6474C100.108 98.7137 94.8994 95.5524 92.2622 93.6687C75.6857 102.039 61.2057 104.25 52.4261 104.889C37.9298 105.937 20.0264 107.33 8.6587 95.5197C7.33192 94.1437 -1.12015 85.0692 0.12473 72.5221C0.35405 70.147 1.69719 59.9751 10.1657 54.3076C15.8659 50.491 22.1886 50.491 23.6792 50.491C25.6939 50.491 28.5932 50.491 32.0166 51.7359C34.9322 52.8006 36.9961 54.3403 37.4384 53.8162C37.8642 53.3248 35.9969 51.8506 35.2762 48.8694C35.0633 48.0013 34.408 45.3477 35.6529 43.2183C37.7004 39.713 43.0567 39.8113 43.7119 39.8277C48.2 39.9587 50.9027 42.7597 51.8364 41.7933C52.5571 41.0562 50.9191 39.4837 50.9682 36.3878C50.9682 35.8965 51.0665 32.6532 53.3597 30.3436C55.6366 28.034 59.1419 27.5099 61.7791 28.0832C65.3663 28.8694 66.5129 31.4738 68.0198 30.8514C69.6087 30.2126 68.7569 27.1332 70.0509 22.858C70.4441 21.5803 72.1967 15.487 77.2254 13.161C82.9911 10.5075 88.8388 13.6033 89.6906 14.0619C95.5218 17.2724 96.996 23.3821 99.666 22.7924C101.288 22.4321 100.993 20.2208 103.433 18.8613C105.94 17.4526 109.33 18.0586 111.558 19.2708C116.324 21.8588 116.095 27.4608 118.159 27.559C120.747 27.6901 121.026 18.8776 126.529 11.6049C134.326 1.31826 147.905 0.286342 148.937 0.237202C149.822 0.188062 163.564 -0.450766 172.95 9.26257C177.782 14.2585 180.026 20.4993 180.583 22.1373C183.253 30.0652 181.844 34.8809 184.514 36.0766C187.528 37.4198 190.215 31.5721 198.912 28.9349C201.206 28.2306 206.906 26.5107 212.999 28.853C220.354 31.6868 223.482 38.6319 223.744 39.2216C226.103 44.6761 224.121 47.6409 226.513 49.328C229.707 51.5721 233.818 46.5926 241.713 47.9521C243.106 48.1978 246.382 48.7875 249.461 51.2773C250.018 51.7195 255.849 56.5844 255.276 63.5131C254.834 68.7383 251.017 72.0471 248.953 73.8162V73.7834Z" fill="#E9F4F6"/>
<path d="M249.559 51.1299C248.593 50.3273 245.677 48.4436 241.746 47.772C237.586 47.0513 234.474 48.0832 231.984 48.9022C229.707 49.6557 228.069 50.1963 226.595 49.1643C225.415 48.3289 225.35 47.1987 225.252 45.4788C225.153 43.8244 225.022 41.7769 223.876 39.107C223.548 38.3371 220.403 31.4903 213.065 28.6566C206.939 26.2815 201.304 28.0014 198.896 28.7221C194.424 30.0816 191.509 32.2929 189.379 33.9145C187.332 35.4706 185.989 36.4862 184.596 35.8638C183.188 35.2413 182.975 33.5542 182.614 30.7532C182.32 28.4436 181.943 25.5607 180.731 22.0063C179.945 19.6967 177.635 13.7999 173.081 9.08246C163.581 -0.745541 149.56 -0.00843933 148.954 0.0243207C137.258 0.728661 129.887 8.05051 126.447 11.4576C122.68 15.1758 120.321 18.9432 118.896 21.5968C118.192 20.6959 115.62 17.6328 111.181 16.7974C110.182 16.6009 107.381 16.1259 104.269 17.5018C101.894 18.5665 100.485 20.1881 99.8299 21.0562C99.3549 19.5165 97.7497 15.0611 93.2779 12.1946C87.1354 8.24707 80.4032 10.3765 78.5523 10.9498C73.2616 12.6205 70.0675 16.1422 68.626 18.0423C66.4639 20.9088 65.5138 23.7262 65.0716 25.4952C63.9741 25.1676 62.1559 24.7581 59.9282 24.9711C58.6178 25.0857 54.8832 25.4461 52.1314 28.5255C49.8873 31.0317 49.5433 33.9637 49.4778 35.0939C45.6449 34.8646 40.2559 34.8973 33.9987 36.1095C29.6908 36.9448 23.9086 38.0259 18.4541 41.3019C6.25097 48.6238 1.84475 62.9726 2.48357 63.3821C2.86031 63.6278 4.62937 58.763 10.0839 55.9456C14.5065 53.6688 20.8619 52.9972 25.6613 54.8973C26.5622 55.2577 30.346 56.8629 33.0814 58.0423C34.9324 58.8449 35.2927 59.0251 35.9971 59.2216C37.3566 59.6148 40.4197 60.4501 43.8431 59.5984C50.6408 57.8949 53.6056 50.8351 54.0314 49.754C55.9315 49.4592 62.4344 48.247 67.2501 42.4977C69.9528 39.2872 71.0339 35.9457 71.5089 33.9637C72.8029 35.1103 75.0306 36.8138 78.2411 37.9113C79.7317 38.4191 84.2362 39.8932 89.1174 38.419C97.1764 35.9784 99.9773 27.3625 100.239 26.4944C100.862 25.9047 103.696 23.3331 107.971 23.3986C108.954 23.3986 112 23.5951 114.523 25.7737C117.881 28.6566 117.488 32.6369 118.913 32.7352C120.272 32.8171 121.32 29.3445 123.499 24.2995C125.448 19.7786 127.676 15.5034 128.806 13.6689C134.637 4.2995 147.479 2.28476 148.593 2.12096C149.887 1.94078 163.515 0.204506 172.836 9.29541C174.441 10.8679 178.29 15.7983 180.436 22.121C181.632 25.659 182.008 28.5091 182.303 30.8187C182.664 33.6033 182.909 35.4543 184.449 36.1422C186.005 36.8302 187.479 35.7163 189.51 34.1602C191.623 32.555 194.523 30.3601 198.929 29.0169C201.304 28.2962 206.873 26.6091 212.917 28.935C220.157 31.736 223.253 38.4682 223.581 39.238C224.711 41.8588 224.842 43.89 224.94 45.5116C225.039 47.2479 225.121 48.4927 226.398 49.3936C227.971 50.5075 229.772 49.9178 232.033 49.1643C234.506 48.3453 237.569 47.3298 241.664 48.0341C242.909 48.247 246.234 48.8203 249.347 51.3265C254.883 55.7818 255.063 63.4641 255.112 63.4477C255.161 63.4477 255.145 55.7982 249.527 51.1135L249.559 51.1299Z" fill="white"/>
<path d="M252.885 55.962C249.265 53.7835 244.138 60.9252 235.965 63.7753C223.991 67.9522 211.346 69.6885 198.34 69.0988C187.939 68.6401 176.784 67.6737 166.858 64.3977C156.882 61.089 148.414 54.8809 137.439 55.487C116.358 56.65 99.7815 72.555 79.6833 77.1577C64.4499 80.6467 49.0035 76.0275 37.0789 66.5107C35.4081 67.6901 32.8528 69.279 29.4786 70.5402C25.3836 72.0636 19.11 74.4223 12.6727 71.8998C6.49741 69.4755 3.58178 63.8736 2.63174 61.8425C1.436 64.6271 -0.316673 69.8031 0.158347 76.3224C0.158347 76.3224 0.96097 87.2151 8.65957 95.5033C19.7325 107.379 38.16 105.905 52.4269 104.873C61.2066 104.234 75.6865 102.039 92.2631 93.6524C94.9003 95.5361 100.125 98.6974 107.398 99.6311C118.569 101.056 127.021 96.2732 129.626 94.6516C133.049 96.0439 138.373 98.0095 145.056 99.6639C157.144 102.661 186.17 109.836 208.577 94.4386C212.312 91.8834 217.865 87.3133 222.992 79.4182C226.268 79.9915 239.503 81.9243 248.954 73.7671C250.936 72.0636 254.884 68.7057 255.277 63.4641C255.326 62.858 255.654 57.6164 252.885 55.9456V55.962Z" fill="#CEEAF0"/>
<path d="M142.451 42.4648C151.247 40.188 158.864 41.9898 161.616 42.6777C167.906 44.2502 172.574 46.9693 175.408 48.9349C175.572 47.2969 176.931 35.1593 187.725 28.0176C198.684 20.7777 210.461 24.5778 212.754 25.3149C226.284 29.672 231.575 41.7932 232.345 43.6605C233.999 43.2183 242.107 41.2199 249.986 45.8882C252.099 47.1495 260.535 52.6532 260.354 61.8096C260.158 72.1126 249.265 77.3378 248.512 77.6818C240.207 81.5147 229.691 79.3362 221.829 72.2273C216.915 78.5336 211.984 82.3665 208.659 84.5942C179.355 104.185 141.042 88.2797 136.882 86.4779C133.803 85.1511 131.378 83.8734 129.871 83.0544C126.661 85.3476 118.618 90.3435 107.873 89.8521C103.778 89.6556 90.8705 89.0659 86.5626 79.7293C83.9582 74.0946 85.4324 67.346 88.561 62.7269C92.8689 56.4042 99.6502 55.0938 101.485 54.7662C111.313 53.0299 118.635 59.2215 119.683 60.1224C121.403 57.2559 128.577 46.0356 142.451 42.432V42.4648Z" fill="white"/>
</svg>
