<svg width="267" height="114" viewBox="0 0 267 114" fill="none" xmlns="http://www.w3.org/2000/svg">
<path d="M-10.4898 73.9709C-16.403 80.6375 -38.7126 58.934 -65.4283 62.5868C-68.5897 63.0126 -83.692 65.0929 -86.5422 74.4786C-88.131 79.7202 -85.3956 86.3214 -81.2842 89.8103C-78.4504 92.2182 -74.1097 92.2509 -65.9197 92.9061C-62.5618 93.1846 -59.3514 93.2174 -57.484 95.5433C-56.2883 97.0339 -56.9599 98.1641 -55.8952 99.8185C-53.7003 103.242 -48.6716 104.7 -43.6921 105.24C-34.3063 106.256 -18.8436 107.927 -5.98532 100.932C-3.97058 99.8349 -0.0885315 97.4762 4.62891 98.1969C7.46265 98.6391 7.44628 99.7038 11.7542 101.145C16.7174 102.8 21.0908 102.783 24.1211 102.816C34.5224 102.898 37.0449 99.6056 44.1047 99.5564C52.262 99.4909 56.2751 104.552 63.9409 107.288C90.9515 116.919 129.92 114.872 141.648 102.554C143.22 100.9 143.531 99.6056 145.513 98.0986C151.82 93.2993 158.486 94.4295 176.095 93.7415C187.839 93.2829 190.738 92.4475 193.376 90.3345C198.552 86.174 199.453 79.6547 199.567 78.6392C201.009 66.9275 190.296 57.3779 186.152 53.6924C178.208 46.6163 169.346 42.8652 154.031 39.0323C140.632 35.6744 105.333 27.1896 71.705 34.6425C62.565 36.6736 55.4233 38.3444 48.0032 43.8808C40.3537 49.5974 39.8295 53.889 33.212 56.1822C23.8427 59.4254 20.796 52.1036 10.0179 54.8554C2.10639 56.8865 -5.95256 63.2747 -9.3596 71.219C-10.2605 73.332 -9.90015 73.3484 -10.4734 74.0036L-10.4898 73.9709Z" fill="#E9F4F6"/>
<path d="M258.962 83.9298C239.519 98.9503 165.235 89.6792 165.645 85.4204C165.874 82.9634 190.493 86.5834 195.08 75.8545C196.587 72.3328 195.8 67.5662 194.113 64.1919C191.853 59.671 187.954 57.6891 185.104 56.2312C183.728 55.5269 177.782 52.644 169.265 53.1354C160.19 53.6596 157.307 57.4597 153.556 55.3795C149.904 53.3484 151.984 49.0077 147.987 43.6842C141.664 35.2812 129.199 35.3959 128.315 35.4123C121.517 35.5761 115.931 38.5572 113.294 39.9659C111.853 40.7358 109.707 42.4721 105.645 44.8963C102.484 46.7964 100.895 47.7464 100.01 47.9757C94.9815 49.3517 91.1158 45.1256 84.9569 42.1608C84.9569 42.1608 76.5212 38.0822 66.1363 38.7047C52.7866 39.5073 43.581 48.2706 40.9275 50.7931C35.2436 56.1985 32.1642 61.9151 30.5589 65.4696C29.2158 63.6678 26.3984 60.4409 21.7792 58.4753C13.753 55.0683 6.23462 58.0331 4.2854 58.7702C-5.44432 62.472 -8.99878 71.1207 -10.0635 70.4491C-11.2265 69.712 -7.96684 58.8848 0.534378 50.4491C9.54338 41.5056 20.1413 39.5073 22.6965 39.0814C32.4099 37.4761 40.1904 39.8021 43.7612 41.1289C44.6785 38.59 51.5581 20.5556 68.5933 15.3304C76.21 12.988 83.106 14.0527 84.1215 14.2165C92.6555 15.6088 98.3885 19.9659 100.813 22.0462C101.321 21.5712 105.514 17.8202 111.46 18.7702C116.783 19.6056 119.551 23.5859 120.01 24.2575C121.812 20.8832 124.99 15.9201 130.231 11.2682C133.818 8.09043 142.156 0.932371 154.85 0.0806111C168.659 -0.836669 178.601 6.33777 181.714 8.81115C196.046 20.2444 197.029 37.3124 197.144 40.0314C198.519 38.4262 201.828 35.0192 207.234 33.2665C210.182 32.3165 216.112 31.1043 222.385 33.8562C230.149 37.2468 233.196 44.8635 233.442 45.5187C235.718 51.4974 233.458 54.5932 235.948 56.5097C239.273 59.0814 243.941 53.9053 252.361 55.7398C253.851 56.0674 257.34 56.8701 260.534 59.6874C261.107 60.1952 267.152 65.6825 266.202 73.119C265.465 78.8356 260.78 82.4556 258.913 83.8971L258.962 83.9298Z" fill="white"/>
<path d="M190.149 74.4951C178.896 70.6622 179.977 67.7466 171.066 65.1585C148.298 58.541 132.933 79.3436 112.098 72.3658C105.497 70.1545 100.992 66.0431 98.5518 63.455C96.6517 65.8793 82.7288 83.0455 60.5502 82.8162C50.0998 82.7179 42.1227 78.7867 37.9131 76.2642C31.0662 86.1577 19.0269 90.5312 8.46182 87.2879C-4.18353 83.3895 -8.2294 70.5476 -8.54062 69.4829C-8.83546 70.0398 -9.11391 70.6131 -9.35962 71.1864C-10.2605 73.2994 -9.90015 73.3158 -10.4735 73.971C-16.3866 80.6376 -38.6962 58.9341 -65.412 62.5869C-68.5733 63.0128 -83.6757 65.093 -86.5258 74.4788C-88.1147 79.7204 -85.3792 86.3215 -81.2678 89.8104C-78.4341 92.2183 -74.0934 92.2511 -65.9034 92.9063C-62.5455 93.1847 -59.335 93.2175 -57.4677 95.5434C-56.2719 97.034 -56.9435 98.1642 -55.8788 99.8186C-53.6839 103.242 -48.6552 104.7 -43.6757 105.24C-34.29 106.256 -18.8273 107.927 -5.96896 100.932C-3.95422 99.835 -0.0721588 97.4763 4.64528 98.197C7.47902 98.6393 7.46264 99.704 11.7706 101.145C16.7337 102.8 21.1072 102.783 24.1375 102.816C34.5388 102.898 37.0613 99.6057 44.1211 99.5565C52.2783 99.491 56.2914 104.552 63.9573 107.288C90.9679 116.919 129.936 114.872 141.664 102.554C143.236 100.9 143.548 99.6057 145.53 98.0987C154.997 90.8915 168.052 92.5786 176.111 93.7416C192.114 96.0348 216.291 99.3436 239.453 94.446C239.453 94.446 261.353 89.9742 265.611 79.5402C267.806 74.1675 266.676 69.6467 266.676 69.6467C266.25 67.9268 265.562 66.6164 265.055 65.781C264.694 66.6164 260.026 76.7392 248.953 78.6557C240.485 80.1135 234.096 75.7728 232.819 74.8719C222.27 77.7056 206.643 80.0971 190.198 74.5115L190.149 74.4951Z" fill="#CEEAF0"/>
<path d="M160.993 71.5137C168.331 69.4007 175.538 71.743 177.618 72.4146C186.3 75.2319 191.591 81.3417 193.671 79.6545C194.523 78.9666 193.949 77.7053 194.195 75.0845C194.195 75.0845 194.736 69.2368 199.175 64.4375C204.007 59.1959 212.754 57.6889 219.731 60.2442C227.594 63.1107 230.837 70.2196 231.853 72.4473C238.093 86.1246 229.314 99.5562 228.757 100.375C227.774 101.833 224.088 106.976 216.849 110.613C213.605 112.234 208.593 114.118 173.556 111.301C163.351 110.482 158.257 110.072 154.457 109.532C148.118 108.631 145.776 107.976 140.96 108.008C133.311 108.057 132.393 109.761 126.628 109.728C124.547 109.728 110.542 109.597 107.348 101.407C105.252 96.0345 108.528 89.0239 113.212 85.5677C116.668 83.0124 120.419 82.7667 123.417 82.6029C132.704 82.1115 134.408 86.5669 140.518 86.01C149.527 85.191 149.691 74.7569 160.96 71.5137H160.993Z" fill="white"/>
<path d="M10.4436 81.1454C9.83756 84.7981 3.22004 86.1249 2.5976 86.2559C-2.11984 87.1568 -4.56046 85.3714 -11.2435 83.7334C-23.119 80.8178 -25.8053 81.0963 -27.8364 81.9153C-30.49 82.98 -30.3753 84.0119 -33.4875 85.0438C-34.7816 85.4697 -39.5481 86.9603 -44.6423 84.7326C-46.1329 84.0774 -50.6865 82.0791 -51.7185 77.5909C-52.3901 74.6425 -51.1124 72.1528 -50.8012 71.5631C-49.3925 68.8604 -47.0666 67.7138 -45.4777 66.9112C-44.5113 66.4198 -42.3164 65.3714 -39.3188 65.4369C-37.2222 65.4861 -35.5842 66.043 -34.585 66.4689C-34.1919 65.0602 -33.4056 63.0782 -31.8168 61.2273C-27.0993 55.7236 -17.1403 53.4959 -10.2935 58.3936C-4.4458 62.5705 -3.92163 69.7613 -3.85611 70.8751C-1.75948 71.0062 2.38467 71.5958 6.13568 74.6098C7.69179 75.8546 10.8859 78.4099 10.4272 81.1618L10.4436 81.1454Z" fill="white"/>
<path d="M7.06994 75.2978C0.583462 78.0169 -7.11514 77.7548 -12.3567 72.9064C-14.3223 73.709 -18.3846 75.0521 -23.5115 74.4461C-27.4591 73.9874 -30.4403 72.5951 -32.1602 71.5959C-32.7335 72.5624 -33.9292 74.2659 -36.075 75.5927C-36.6974 75.9858 -40.4812 78.2462 -45.2478 77.0341C-48.704 76.1496 -50.7351 73.9219 -51.4558 73.0538C-51.767 74.0366 -52.1438 75.691 -51.7343 77.591C-50.7515 82.0464 -46.1978 84.0611 -44.6581 84.7327C-39.5639 86.9604 -34.8137 85.4698 -33.5033 85.0439C-30.3911 84.012 -30.5058 82.9801 -27.8522 81.9154C-25.8047 81.0964 -23.1348 80.8179 -11.2593 83.7335C-4.59262 85.3715 -2.13563 87.1569 2.58181 86.256C3.20425 86.1414 9.82177 84.8146 10.4278 81.1455C10.821 78.754 8.46224 76.4444 7.05356 75.2978H7.06994Z" fill="#E9F4F6"/>
<path d="M232.77 74.8555C232.148 76.4116 225.76 91.7432 208.937 95.9693C194.474 99.5893 183.09 92.2838 181.255 91.0553C172.689 100.048 153.016 103.848 143.221 95.9038C141.976 96.6573 132.885 102.014 122.435 98.2461C115.244 95.6581 111.542 90.2199 110.379 88.369C109.462 89.0078 107.775 90.4001 106.841 92.7261C105.17 96.8211 107.054 100.736 107.398 101.424C111.362 109.319 124.22 109.696 125.842 109.729C126.202 109.729 126.481 109.729 126.661 109.729C132.426 109.778 133.344 108.074 140.993 108.009C145.809 107.976 148.151 108.631 154.49 109.532C158.274 110.072 163.385 110.482 173.589 111.301C208.61 114.118 213.639 112.251 216.882 110.613C223.909 107.075 227.889 101.686 228.79 100.376C229.855 98.8194 235.408 90.4165 233.901 79.6385C233.622 77.6237 233.164 75.9857 232.787 74.8555H232.77Z" fill="#CEEAF0"/>
</svg>
