<svg width="243" height="470" viewBox="0 0 243 470" fill="none" xmlns="http://www.w3.org/2000/svg">
<path d="M98.7795 286.43C98.3373 285.103 97.1579 282.302 94.3406 280.123C93.9802 279.845 89.6231 276.585 84.9548 277.47C81.3676 278.142 80.0736 278.518 80.0736 278.518C78.6158 278.96 77.5838 279.337 77.076 278.862C76.5846 278.387 76.9614 277.388 77.076 276.585C77.4692 273.817 74.8484 271.262 73.3742 269.837C69.0499 265.644 62.4651 265.775 59.6805 265.856C50.6387 266.102 44.9057 271.164 44.2833 271.737C41.6461 274.145 42.3668 275.209 39.8279 276.389C35.8967 278.191 32.6043 276.389 27.674 278.485C26.5765 278.961 24.2505 280.14 23.5298 281.811C22.9893 283.056 23.4315 284.071 23.7755 284.89C24.1031 285.644 24.3488 286.25 23.8083 286.774C23.1367 287.413 21.8427 287.38 20.0573 287.347C19.0253 287.331 17.8623 287.298 16.5356 287.396C11.2448 287.789 8.68954 293.473 3.33328 293.178C2.36686 293.129 1.61339 292.883 1.22027 292.736C-0.663432 297.683 -0.0082316 300.68 0.810768 302.449C6.93689 315.553 46.4454 311.016 63.4643 309.067C70.0982 308.297 73.6035 307.544 80.7779 307.413C90.6551 307.232 94.8483 307.052 103.235 306.692C108.067 306.479 110.016 306.348 111.638 304.775C115.372 301.139 114.734 292.359 110.147 288.248C107.608 285.971 104.381 285.594 104.169 285.562C101.695 285.3 99.746 286.004 98.8287 286.397L98.7795 286.43Z" fill="#F2F7F8"/>
<path d="M89.5251 291.819C91.9494 291.655 96.6668 291.311 98.4686 287.855C100.238 284.432 98.0264 280.173 96.0608 278.011C92.064 273.604 85.9215 274.489 84.9879 274.62C80.8437 275.275 78.2229 277.732 77.2893 278.682C77.322 277.044 77.1582 274.309 75.8151 271.36C73.2107 265.627 68.0837 263.285 66.4949 262.581C59.2549 259.403 52.5063 261.86 50.5407 262.695C48.5915 263.514 44.8405 265.152 42.3016 269.231C40.5817 271.983 40.1394 274.685 40.0084 276.225C38.9109 275.636 35.6677 274.112 31.6873 274.915C27.1828 275.832 23.5137 279.387 22.0232 284.104C19.7463 283.596 15.2746 282.974 10.3442 284.792C8.78811 285.365 5.39746 286.659 2.85856 289.968C1.17142 292.163 -0.270024 295.439 0.598116 296.225C1.31884 296.864 3.00598 295.242 6.64234 293.686C8.8864 292.72 15.2418 290.001 21.1714 291.983C24.0051 292.916 23.7594 293.932 26.4785 294.571C31.3598 295.701 35.6513 293.277 36.716 292.671C42.0395 289.673 43.956 284.563 44.4638 283.072C45.5776 283.842 47.1992 284.825 49.2795 285.693C56.1591 288.543 62.3343 287.642 64.2672 287.298C69.0337 286.43 72.5718 284.432 74.6521 283.023C75.2418 284.333 76.503 286.708 79.0419 288.69C83.1369 291.917 87.6906 291.917 89.5251 291.803V291.819Z" fill="white"/>
<path d="M41.2377 299.747C42.7774 300.844 44.5792 301.876 46.6758 302.712C56.9625 306.774 66.9543 302.859 70.3449 301.352C72.8511 302.499 76.5693 303.678 80.7298 302.843C82.8592 302.417 83.1541 301.86 85.4473 301.45C89.8535 300.648 96.4219 302.482 96.4219 302.482C105.234 305.103 111.917 302.253 112.261 303.711C112.589 305.136 106.381 308.477 100.107 309.788C91.9338 311.491 84.6119 310.279 79.4358 308.756C73.752 312.228 68.6742 313.866 65.218 314.702C57.7651 316.504 54.9314 315.275 53.5554 314.374C52.5235 313.703 52.6709 313.457 51.6553 312.884C48.5268 311.131 45.1361 312.343 40.4678 313.391C40.4678 313.391 35.8159 314.423 31.0821 314.898C26.8233 315.324 19.9437 316.012 13.0149 312.753C11.033 311.819 8.05178 310.099 5.02148 306.856C6.46292 305.136 8.95269 302.728 12.5563 301.844C19.4687 300.14 24.1861 306.561 31.7209 304.513C36.209 303.285 39.4195 301.123 41.2541 299.698L41.2377 299.747Z" fill="#CEEAF0"/>
<path d="M201.13 20.8428C200.784 19.8068 199.863 17.6197 197.663 15.9187C197.382 15.7012 193.98 13.1561 190.335 13.8467C187.534 14.3711 186.523 14.6652 186.523 14.6652C185.385 15.0106 184.579 15.3047 184.183 14.9338C183.799 14.5629 184.093 13.7828 184.183 13.156C184.49 10.9946 182.444 8.99933 181.292 7.88661C177.916 4.61239 172.774 4.71468 170.6 4.77863C163.54 4.97048 159.064 8.9226 158.578 9.37024C156.518 11.2504 157.081 12.0817 155.099 13.0026C152.029 14.4095 149.458 13.0026 145.609 14.6397C144.752 15.0106 142.935 15.9315 142.373 17.236C141.951 18.2081 142.296 19.001 142.565 19.6405C142.82 20.2289 143.012 20.7021 142.59 21.1114C142.066 21.6102 141.055 21.5846 139.661 21.559C138.855 21.5462 137.947 21.5207 136.911 21.5974C132.78 21.9044 130.785 26.3424 126.603 26.1122C125.848 26.0739 125.26 25.882 124.953 25.7669C123.482 29.6294 123.994 31.97 124.633 33.3513C129.417 43.5833 160.266 40.0404 173.555 38.5184C178.734 37.9173 181.471 37.329 187.073 37.2267C194.786 37.086 198.06 36.9453 204.608 36.6639C208.381 36.4976 209.903 36.3953 211.17 35.1675C214.086 32.3281 213.587 25.4727 210.006 22.2625C208.023 20.4847 205.504 20.1905 205.337 20.1649C203.406 19.9603 201.884 20.5102 201.168 20.8172L201.13 20.8428Z" fill="#F2F7F8"/>
<path d="M193.904 25.0508C195.796 24.9229 199.48 24.6543 200.887 21.9556C202.268 19.2825 200.541 15.9572 199.007 14.2689C195.886 10.8284 191.09 11.519 190.361 11.6214C187.125 12.133 185.078 14.0515 184.349 14.7933C184.375 13.5143 184.247 11.3784 183.198 9.07619C181.165 4.59972 177.162 2.77074 175.921 2.22078C170.268 -0.260466 164.998 1.65803 163.464 2.31032C161.942 2.94981 159.013 4.22883 157.03 7.41352C155.687 9.56222 155.342 11.6725 155.24 12.8748C154.383 12.4144 151.85 11.2249 148.742 11.8516C145.225 12.5678 142.36 15.3432 141.196 19.0267C139.419 18.6302 135.927 18.1443 132.077 19.5639C130.862 20.0116 128.215 21.0219 126.232 23.6055C124.915 25.3194 123.789 27.8773 124.467 28.4913C125.03 28.9901 126.347 27.7239 129.187 26.5088C130.939 25.7542 135.901 23.6311 140.531 25.1787C142.744 25.9077 142.552 26.7007 144.675 27.1995C148.487 28.082 151.838 26.1891 152.669 25.7159C156.826 23.3753 158.322 19.3848 158.718 18.221C159.588 18.8221 160.854 19.5895 162.479 20.2674C167.85 22.4928 172.672 21.7894 174.181 21.5208C177.903 20.8429 180.666 19.2825 182.29 18.1826C182.751 19.2058 183.736 21.0603 185.718 22.6079C188.915 25.1275 192.471 25.1275 193.904 25.038V25.0508Z" fill="white"/>
<path d="M156.199 31.241C157.402 32.0979 158.809 32.9037 160.446 33.556C168.478 36.7279 176.28 33.6711 178.927 32.4944C180.884 33.3897 183.787 34.3106 187.036 33.6583C188.699 33.3258 188.929 32.8909 190.719 32.5712C194.16 31.9445 199.289 33.3769 199.289 33.3769C206.17 35.4233 211.388 33.1979 211.656 34.3362C211.912 35.4489 207.065 38.058 202.166 39.0812C195.784 40.4114 190.067 39.4649 186.025 38.2755C181.587 40.9869 177.622 42.2659 174.924 42.9182C169.104 44.3251 166.892 43.3659 165.817 42.6624C165.012 42.138 165.127 41.9462 164.334 41.4985C161.891 40.13 159.243 41.0765 155.598 41.895C155.598 41.895 151.966 42.7008 148.27 43.0717C144.944 43.4042 139.573 43.9414 134.162 41.3962C132.615 40.6672 130.287 39.3242 127.921 36.7918C129.046 35.4489 130.99 33.5688 133.804 32.8781C139.202 31.548 142.885 36.5616 148.768 34.9629C152.273 34.0036 154.78 32.3154 156.212 31.2026L156.199 31.241Z" fill="#CEEAF0"/>
<path d="M175.51 429.971C169.597 436.638 147.288 414.934 120.572 418.587C117.41 419.013 102.308 421.093 99.458 430.479C97.8691 435.72 100.605 442.321 104.716 445.81C107.55 448.218 111.89 448.251 120.08 448.906C123.438 449.185 126.649 449.217 128.516 451.543C129.712 453.034 129.04 454.164 130.105 455.819C132.3 459.242 137.329 460.7 142.308 461.24C151.694 462.256 167.157 463.927 180.015 456.932C182.03 455.835 185.912 453.476 190.629 454.197C193.463 454.639 193.446 455.704 197.754 457.145C202.717 458.8 207.091 458.783 210.121 458.816C220.523 458.898 223.045 455.606 230.105 455.556C238.262 455.491 242.275 460.552 249.941 463.288C276.952 472.919 315.92 470.872 327.648 458.554C329.22 456.9 329.531 455.606 331.513 454.099C337.82 449.299 344.486 450.429 362.095 449.742C373.839 449.283 376.739 448.448 379.376 446.334C384.552 442.174 385.453 435.655 385.567 434.639C387.009 422.927 376.296 413.378 372.152 409.692C364.208 402.616 355.346 398.865 340.031 395.032C326.632 391.674 291.333 383.19 257.705 390.642C248.565 392.674 241.423 394.344 234.003 399.881C226.354 405.597 225.83 409.889 219.212 412.182C209.843 415.425 206.796 408.104 196.018 410.855C188.107 412.887 180.048 419.275 176.641 427.219C175.74 429.332 176.1 429.348 175.527 430.004L175.51 429.971Z" fill="#E9F4F6"/>
<path d="M444.962 439.93C425.519 454.95 351.235 445.679 351.645 441.42C351.874 438.963 376.493 442.583 381.08 431.854C382.587 428.333 381.801 423.566 380.113 420.192C377.853 415.671 373.954 413.689 371.104 412.231C369.728 411.527 363.783 408.644 355.265 409.135C346.19 409.659 343.307 413.46 339.556 411.379C335.904 409.348 337.984 405.008 333.987 399.684C327.665 391.281 315.199 391.396 314.315 391.412C307.517 391.576 301.932 394.557 299.294 395.966C297.853 396.736 295.707 398.472 291.645 400.896C288.484 402.796 286.895 403.746 286.01 403.976C280.982 405.352 277.116 401.125 270.957 398.161C270.957 398.161 262.521 394.082 252.136 394.705C238.787 395.507 229.581 404.27 226.928 406.793C221.244 412.198 218.164 417.915 216.559 421.469C215.216 419.668 212.399 416.441 207.779 414.475C199.753 411.068 192.235 414.033 190.286 414.77C180.556 418.472 177.001 427.121 175.937 426.449C174.774 425.712 178.033 414.885 186.535 406.449C195.544 397.506 206.141 395.507 208.697 395.081C218.41 393.476 226.19 395.802 229.761 397.129C230.679 394.59 237.558 376.555 254.593 371.33C262.21 368.988 269.106 370.053 270.122 370.216C278.656 371.609 284.389 375.966 286.813 378.046C287.321 377.571 291.514 373.82 297.46 374.77C302.783 375.605 305.552 379.586 306.01 380.257C307.812 376.883 310.99 371.92 316.231 367.268C319.819 364.09 328.156 356.932 340.851 356.08C354.659 355.163 364.602 362.338 367.714 364.811C382.046 376.244 383.029 393.312 383.144 396.031C384.52 394.426 387.828 391.019 393.234 389.266C396.182 388.316 402.112 387.104 408.385 389.856C416.149 393.247 419.196 400.863 419.442 401.519C421.719 407.497 419.458 410.593 421.948 412.51C425.273 415.081 429.941 409.905 438.361 411.74C439.851 412.067 443.34 412.87 446.534 415.687C447.108 416.195 453.152 421.682 452.202 429.119C451.465 434.836 446.78 438.456 444.913 439.897L444.962 439.93Z" fill="white"/>
<path d="M376.149 430.495C364.896 426.662 365.977 423.747 357.066 421.159C334.298 414.541 318.934 435.344 298.098 428.366C291.497 426.154 286.993 422.043 284.552 419.455C282.652 421.879 268.729 439.045 246.55 438.816C236.1 438.718 228.123 434.787 223.913 432.264C217.066 442.158 205.027 446.531 194.462 443.288C181.817 439.389 177.771 426.548 177.459 425.483C177.165 426.04 176.886 426.613 176.64 427.186C175.74 429.299 176.1 429.316 175.527 429.971C169.613 436.638 147.304 414.934 120.588 418.587C117.427 419.013 102.324 421.093 99.4743 430.479C97.8854 435.72 100.621 442.322 104.732 445.81C107.566 448.218 111.907 448.251 120.097 448.906C123.455 449.185 126.665 449.217 128.532 451.543C129.728 453.034 129.057 454.164 130.121 455.819C132.316 459.242 137.345 460.7 142.324 461.24C151.71 462.256 167.173 463.927 180.031 456.932C182.046 455.835 185.928 453.476 190.645 454.197C193.479 454.639 193.463 455.704 197.771 457.145C202.734 458.8 207.107 458.783 210.138 458.816C220.539 458.898 223.061 455.606 230.121 455.557C238.278 455.491 242.291 460.552 249.957 463.288C276.968 472.919 315.936 470.872 327.664 458.554C329.237 456.9 329.548 455.606 331.53 454.099C340.997 446.892 354.052 448.579 362.111 449.742C378.114 452.035 402.291 455.344 425.453 450.446C425.453 450.446 447.353 445.974 451.612 435.54C453.806 430.168 452.676 425.647 452.676 425.647C452.25 423.927 451.562 422.616 451.055 421.781C450.694 422.616 446.026 432.739 434.953 434.656C426.485 436.113 420.096 431.773 418.819 430.872C408.27 433.706 392.643 436.097 376.198 430.512L376.149 430.495Z" fill="#CEEAF0"/>
<path d="M196.444 437.145C195.838 440.798 189.22 442.125 188.598 442.256C183.88 443.157 181.44 441.371 174.757 439.733C162.881 436.818 160.195 437.096 158.164 437.915C155.51 438.98 155.625 440.012 152.513 441.044C151.219 441.47 146.452 442.96 141.358 440.733C139.867 440.077 135.314 438.079 134.282 433.591C133.61 430.643 134.888 428.153 135.199 427.563C136.608 424.86 138.934 423.714 140.522 422.911C141.489 422.42 143.684 421.371 146.681 421.437C148.778 421.486 150.416 422.043 151.415 422.469C151.808 421.06 152.594 419.078 154.183 417.227C158.901 411.724 168.86 409.496 175.707 414.394C181.554 418.57 182.078 425.761 182.144 426.875C184.241 427.006 188.385 427.596 192.136 430.61C193.692 431.855 196.886 434.41 196.427 437.162L196.444 437.145Z" fill="white"/>
<path d="M193.07 431.298C186.583 434.017 178.885 433.755 173.643 428.906C171.678 429.709 167.615 431.052 162.488 430.446C158.541 429.987 155.56 428.595 153.84 427.596C153.266 428.562 152.071 430.266 149.925 431.593C149.302 431.986 145.519 434.246 140.752 433.034C137.296 432.15 135.265 429.922 134.544 429.054C134.233 430.037 133.856 431.691 134.266 433.591C135.248 438.046 139.802 440.061 141.342 440.733C146.436 442.96 151.186 441.47 152.497 441.044C155.609 440.012 155.494 438.98 158.148 437.915C160.195 437.096 162.865 436.818 174.741 439.734C181.407 441.372 183.864 443.157 188.582 442.256C189.204 442.141 195.822 440.815 196.428 437.145C196.821 434.754 194.462 432.444 193.053 431.298H193.07Z" fill="#E9F4F6"/>
</svg>
